<?xml version="1.0" encoding="utf-8"?>
<!-- Generator: Adobe Illustrator 26.0.1, SVG Export Plug-In . SVG Version: 6.00 Build 0)  -->
<svg version="1.1" id="Layer_1" xmlns="http://www.w3.org/2000/svg" xmlns:xlink="http://www.w3.org/1999/xlink" x="0px" y="0px"
	 viewBox="0 0 2000 2000" style="enable-background:new 0 0 2000 2000;" xml:space="preserve">
<style type="text/css">
	
		.st0{clip-path:url(#SVGID_00000098215385774032286560000006317104072443548834_);fill:url(#SVGID_00000054953376162274935730000005586333238817759390_);stroke:#FFFFFF;stroke-width:2;stroke-miterlimit:10;}
	
		.st1{clip-path:url(#SVGID_00000127759968642934906660000017683926142289447843_);fill:url(#SVGID_00000120541524191509508730000007402679795335749527_);stroke:#FFFFFF;stroke-width:2;stroke-miterlimit:10;}
	
		.st2{clip-path:url(#SVGID_00000050657743785699904950000005238129639594979463_);fill:url(#SVGID_00000012466610777082714090000011844459674688950943_);stroke:#FFFFFF;stroke-width:2;stroke-miterlimit:10;}
	.st3{clip-path:url(#SVGID_00000039104856461948180840000013838942901734029697_);}
	
		.st4{clip-path:url(#SVGID_00000150068356092600661080000014947957383675821703_);fill:url(#SVGID_00000124870990763008767450000006399583137211904672_);stroke:#FFFFFF;stroke-width:2;stroke-miterlimit:10;}
	
		.st5{clip-path:url(#SVGID_00000155110024269905336330000009205709931759886484_);fill:url(#SVGID_00000096750179890484457580000009512750679410206634_);stroke:#FFFFFF;stroke-width:2;stroke-miterlimit:10;}
	
		.st6{clip-path:url(#SVGID_00000017514235431427517320000015980423511805893007_);fill:url(#SVGID_00000119109017857252853550000013061287328215178415_);}
	.st7{fill:#312783;stroke:#FFFFFF;stroke-width:2;stroke-miterlimit:10;}
	.st8{fill:#E5201C;stroke:#FFFFFF;stroke-width:2;stroke-miterlimit:10;}
	.st9{font-family:'Heavitas';}
	.st10{font-size:39px;}
</style>
<g>
	<defs>
		<path id="SVGID_1_" d="M759.36,872.97v147.81c27.26,9.81,56.94,16.25,88.11,18.78V798.62L759.36,872.97z"/>
	</defs>
	<clipPath id="SVGID_00000100350131945636500420000005725181797164144312_">
		<use xlink:href="#SVGID_1_"  style="overflow:visible;"/>
	</clipPath>
	
		<linearGradient id="SVGID_00000160175916677994112620000003195379379983623096_" gradientUnits="userSpaceOnUse" x1="7.728828e-03" y1="1997.3909" x2="1.0077" y2="1997.3909" gradientTransform="matrix(88.1082 0 0 -88.1082 758.6819 176905.6094)">
		<stop  offset="0" style="stop-color:#C31718"/>
		<stop  offset="0.25" style="stop-color:#E52826"/>
		<stop  offset="0.75" style="stop-color:#E41D1A"/>
		<stop  offset="1" style="stop-color:#C31718"/>
	</linearGradient>
	
		<rect x="759.36" y="798.62" style="clip-path:url(#SVGID_00000100350131945636500420000005725181797164144312_);fill:url(#SVGID_00000160175916677994112620000003195379379983623096_);stroke:#FFFFFF;stroke-width:2;stroke-miterlimit:10;" width="88.11" height="240.93"/>
	<use xlink:href="#SVGID_1_"  style="overflow:visible;fill:none;stroke:#FFFFFF;stroke-width:2;stroke-miterlimit:10;"/>
</g>
<g>
	<defs>
		<path id="SVGID_00000112590777945323015580000011628488443706601380_" d="M868.12,761.5v279.16c13.8,0.34,27.85-0.06,42.07-1.29
			c15.76-1.37,31.13-3.71,46.04-6.9V687.16L868.12,761.5z"/>
	</defs>
	<clipPath id="SVGID_00000003063470801105632660000009937881662889082251_">
		<use xlink:href="#SVGID_00000112590777945323015580000011628488443706601380_"  style="overflow:visible;"/>
	</clipPath>
	
		<linearGradient id="SVGID_00000058581637067897059810000012348737967538217365_" gradientUnits="userSpaceOnUse" x1="7.732985e-03" y1="1997.3896" x2="1.0077" y2="1997.3896" gradientTransform="matrix(88.1082 0 0 -88.1082 867.4405 176850.4844)">
		<stop  offset="0" style="stop-color:#292D71"/>
		<stop  offset="0.25" style="stop-color:#42509E"/>
		<stop  offset="0.75" style="stop-color:#42509E"/>
		<stop  offset="1" style="stop-color:#292D71"/>
	</linearGradient>
	
		<rect x="868.12" y="687.16" style="clip-path:url(#SVGID_00000003063470801105632660000009937881662889082251_);fill:url(#SVGID_00000058581637067897059810000012348737967538217365_);stroke:#FFFFFF;stroke-width:2;stroke-miterlimit:10;" width="88.11" height="353.84"/>
	
		<use xlink:href="#SVGID_00000112590777945323015580000011628488443706601380_"  style="overflow:visible;fill:none;stroke:#FFFFFF;stroke-width:2;stroke-miterlimit:10;"/>
</g>
<g>
	<defs>
		<path id="SVGID_00000098203316819876036140000014253800556557020289_" d="M976.88,609.62v417.82
			c32.22-8.86,61.93-21.81,88.11-37.98V535.28L976.88,609.62z"/>
	</defs>
	<clipPath id="SVGID_00000134209055103188977590000015090734095716057759_">
		<use xlink:href="#SVGID_00000098203316819876036140000014253800556557020289_"  style="overflow:visible;"/>
	</clipPath>
	
		<linearGradient id="SVGID_00000126307954531108553000000006528958033154886573_" gradientUnits="userSpaceOnUse" x1="7.725365e-03" y1="1997.3909" x2="1.0077" y2="1997.3909" gradientTransform="matrix(88.1082 0 0 -88.1082 976.1991 176767.875)">
		<stop  offset="0" style="stop-color:#C31718"/>
		<stop  offset="0.25" style="stop-color:#E52826"/>
		<stop  offset="0.5" style="stop-color:#C31718"/>
		<stop  offset="0.75" style="stop-color:#E41D1A"/>
		<stop  offset="1" style="stop-color:#C31718"/>
	</linearGradient>
	
		<rect x="976.88" y="535.28" style="clip-path:url(#SVGID_00000134209055103188977590000015090734095716057759_);fill:url(#SVGID_00000126307954531108553000000006528958033154886573_);stroke:#FFFFFF;stroke-width:2;stroke-miterlimit:10;" width="88.11" height="492.17"/>
	
		<use xlink:href="#SVGID_00000098203316819876036140000014253800556557020289_"  style="overflow:visible;fill:none;stroke:#FFFFFF;stroke-width:2;stroke-miterlimit:10;"/>
</g>
<g>
	<defs>
		<rect id="SVGID_00000139267090747780475880000015213316473872704700_" x="0.68" y="229.89" width="2000" height="2000"/>
	</defs>
	<clipPath id="SVGID_00000105413347568640491600000000332736673529175955_">
		<use xlink:href="#SVGID_00000139267090747780475880000015213316473872704700_"  style="overflow:visible;"/>
	</clipPath>
	<path style="clip-path:url(#SVGID_00000105413347568640491600000000332736673529175955_);" d="M759.36,1060.15
		c8.1,4.07,16.5,7.81,25.16,11.2h62.95v-31.8c-31.17-2.54-60.85-8.98-88.11-18.78V1060.15z"/>
	<path style="clip-path:url(#SVGID_00000105413347568640491600000000332736673529175955_);" d="M868.12,1040.66v30.7h88.11v-38.89
		c-14.91,3.18-30.28,5.53-46.04,6.9C895.97,1040.6,881.93,1041,868.12,1040.66"/>
	<path style="clip-path:url(#SVGID_00000105413347568640491600000000332736673529175955_);" d="M976.88,1027.44v43.91h63.98
		c8.26-3.09,16.31-6.47,24.13-10.1v-71.8C1038.81,1005.63,1009.1,1018.58,976.88,1027.44"/>
</g>
<g>
	<defs>
		<path id="SVGID_00000168829780566770410760000004601754335266712501_" d="M1219.41,873.79l-35.9,16.76l-102.68,47.95l75.4,6.42
			c-49.34,69.6-145.03,116.79-255.01,116.79c-108.86,0-203.72-46.25-253.48-114.68c30.96,98.21,145.59,171.13,282.28,171.13
			c120.62,0,224.06-56.77,268-137.61l22.54,79.79l26.85-199.62L1219.41,873.79z"/>
	</defs>
	<clipPath id="SVGID_00000119801920839267452700000009713663240530317493_">
		<use xlink:href="#SVGID_00000168829780566770410760000004601754335266712501_"  style="overflow:visible;"/>
	</clipPath>
	
		<linearGradient id="SVGID_00000036211520893333148690000005137634402831339176_" gradientUnits="userSpaceOnUse" x1="0.1526" y1="2000.2297" x2="1.1526" y2="2000.2297" gradientTransform="matrix(-686.2468 447.9272 447.9272 686.2468 -894556.875 -1371957.25)">
		<stop  offset="0" style="stop-color:#C31718"/>
		<stop  offset="0.25" style="stop-color:#E52826"/>
		<stop  offset="0.5" style="stop-color:#C31718"/>
		<stop  offset="0.75" style="stop-color:#E41D1A"/>
		<stop  offset="1" style="stop-color:#C31718"/>
	</linearGradient>
	
		<polygon style="clip-path:url(#SVGID_00000119801920839267452700000009713663240530317493_);fill:url(#SVGID_00000036211520893333148690000005137634402831339176_);stroke:#FFFFFF;stroke-width:2;stroke-miterlimit:10;" points="
		1365.23,1041.25 826.89,1392.64 529.9,937.64 1068.25,586.25 	"/>
	
		<use xlink:href="#SVGID_00000168829780566770410760000004601754335266712501_"  style="overflow:visible;fill:none;stroke:#FFFFFF;stroke-width:2;stroke-miterlimit:10;"/>
</g>
<g>
	<defs>
		<path id="SVGID_00000140727068172604590120000005673842256696186530_" d="M704.51,798.62c0,4.31,0.11,8.59,0.26,12.86
			c6.53-169.51,145.99-304.93,317.1-304.93c175.27,0,317.36,142.09,317.36,317.36c0,171.11-135.42,310.57-304.93,317.1
			c4.27,0.16,8.56,0.26,12.86,0.26c189.24,0,342.65-153.41,342.65-342.65s-153.41-342.65-342.65-342.65
			C857.92,455.97,704.51,609.38,704.51,798.62"/>
	</defs>
	<clipPath id="SVGID_00000022524521686358675220000002439192413936464561_">
		<use xlink:href="#SVGID_00000140727068172604590120000005673842256696186530_"  style="overflow:visible;"/>
	</clipPath>
	
		<linearGradient id="SVGID_00000127014316183626938420000007532680142253611648_" gradientUnits="userSpaceOnUse" x1="9.934055e-04" y1="1999.6646" x2="1.001" y2="1999.6646" gradientTransform="matrix(685.3093 0 0 -685.3093 703.8301 1371187.375)">
		<stop  offset="0" style="stop-color:#292D71"/>
		<stop  offset="0.25" style="stop-color:#42509E"/>
		<stop  offset="0.5" style="stop-color:#292D71"/>
		<stop  offset="0.75" style="stop-color:#42509E"/>
		<stop  offset="1" style="stop-color:#292D71"/>
	</linearGradient>
	
		<rect x="704.51" y="455.97" style="clip-path:url(#SVGID_00000022524521686358675220000002439192413936464561_);fill:url(#SVGID_00000127014316183626938420000007532680142253611648_);stroke:#FFFFFF;stroke-width:2;stroke-miterlimit:10;" width="685.31" height="685.31"/>
	
		<use xlink:href="#SVGID_00000140727068172604590120000005673842256696186530_"  style="overflow:visible;fill:none;stroke:#FFFFFF;stroke-width:2;stroke-miterlimit:10;"/>
</g>
<g>
	<defs>
		<rect id="SVGID_00000137836815794168999530000008440565029340817321_" x="650.24" y="1285.84" width="739.4" height="33.78"/>
	</defs>
	<clipPath id="SVGID_00000101795809443778138300000004420406001744141971_">
		<use xlink:href="#SVGID_00000137836815794168999530000008440565029340817321_"  style="overflow:visible;"/>
	</clipPath>
	
		<linearGradient id="SVGID_00000134222278649069153430000004838616473518650558_" gradientUnits="userSpaceOnUse" x1="9.210695e-04" y1="1999.6891" x2="1.0009" y2="1999.6891" gradientTransform="matrix(739.395 0 0 -739.395 649.5558 1479862.875)">
		<stop  offset="0" style="stop-color:#C31718"/>
		<stop  offset="0.25" style="stop-color:#E52826"/>
		<stop  offset="0.5" style="stop-color:#C31718"/>
		<stop  offset="0.75" style="stop-color:#E41D1A"/>
		<stop  offset="1" style="stop-color:#C31718"/>
	</linearGradient>
	
		<rect x="650.24" y="1285.84" style="clip-path:url(#SVGID_00000101795809443778138300000004420406001744141971_);fill:url(#SVGID_00000134222278649069153430000004838616473518650558_);" width="739.39" height="33.78"/>
</g>
<g>
	<path class="st7" d="M650.24,1198.12v-13.97h59.44v13.97h-22.1v66.04h-15.24v-66.04H650.24z"/>
	<path class="st7" d="M754.89,1233.17l17.91,30.99h-17.78l-16.89-29.21h-9.4v29.21h-15.24v-80.01h28.83c4.83,0,9.16,0.63,13.02,1.9
		c3.85,1.27,7.13,3.03,9.84,5.27c2.71,2.24,4.78,4.91,6.22,8c1.44,3.09,2.16,6.5,2.16,10.22c0,5.84-1.65,10.79-4.95,14.86
		C765.3,1228.47,760.73,1231.39,754.89,1233.17z M728.72,1198.12v22.86h12.95c5.33,0,9.33-1.02,12-3.05c2.67-2.03,4-4.83,4-8.38
		s-1.33-6.35-4-8.38s-6.67-3.05-12-3.05H728.72z"/>
	<path class="st7" d="M776.22,1184.15h15.24v41.78c0,4.66,0.46,8.57,1.4,11.75c0.93,3.17,2.24,5.71,3.94,7.62
		c1.69,1.91,3.77,3.26,6.22,4.06c2.45,0.81,5.21,1.21,8.25,1.21c3.05,0,5.78-0.4,8.19-1.21c2.41-0.8,4.46-2.16,6.16-4.06
		c1.69-1.91,2.98-4.45,3.87-7.62c0.89-3.17,1.33-7.09,1.33-11.75v-41.78h15.24v44.45c0,5.59-0.81,10.65-2.41,15.18
		c-1.61,4.53-3.94,8.38-6.98,11.56c-3.05,3.17-6.73,5.61-11.05,7.3c-4.32,1.69-9.14,2.54-14.48,2.54s-10.16-0.85-14.48-2.54
		c-4.32-1.69-8-4.13-11.05-7.3c-3.05-3.18-5.38-7.03-6.98-11.56c-1.61-4.53-2.41-9.59-2.41-15.18V1184.15z"/>
	<path class="st7" d="M913,1214.37c-1.69-5.08-4.49-9.02-8.38-11.81c-3.9-2.79-8.72-4.19-14.48-4.19c-3.39,0-6.56,0.59-9.52,1.78
		c-2.96,1.19-5.55,2.9-7.75,5.14c-2.2,2.24-3.96,4.93-5.27,8.06c-1.31,3.13-1.97,6.69-1.97,10.67c0,3.89,0.65,7.45,1.97,10.67
		c1.31,3.22,3.07,5.95,5.27,8.19c2.2,2.24,4.78,3.98,7.75,5.21c2.96,1.23,6.14,1.84,9.52,1.84c6.1,0,11.2-1.48,15.3-4.45
		c4.11-2.96,6.75-6.99,7.94-12.07h16.51c-0.51,4.74-1.9,9.06-4.19,12.95c-2.29,3.9-5.23,7.24-8.83,10.03
		c-3.6,2.79-7.68,4.95-12.26,6.48c-4.57,1.52-9.4,2.29-14.48,2.29c-5.59,0-10.82-1.02-15.68-3.05c-4.87-2.03-9.14-4.87-12.83-8.51
		c-3.68-3.64-6.58-7.98-8.7-13.02c-2.12-5.04-3.17-10.52-3.17-16.45c0-6.01,1.06-11.51,3.17-16.51c2.12-4.99,5.02-9.31,8.7-12.95
		c3.68-3.64,7.96-6.48,12.83-8.51c4.87-2.03,10.1-3.05,15.68-3.05c5.33,0,10.24,0.72,14.73,2.16c4.49,1.44,8.42,3.51,11.81,6.22
		c3.39,2.71,6.2,5.99,8.45,9.84c2.24,3.85,3.75,8.19,4.51,13.02H913z"/>
	<path class="st7" d="M962.15,1220.34l31.75,43.82h-19.05l-22.73-31.88l-3.81,4.57v27.3h-15.24v-80.01h15.24v30.1l25.27-30.1h19.05
		L962.15,1220.34z"/>
	<path class="st7" d="M996.56,1184.15h15.24v80.01h-15.24V1184.15z"/>
	<path class="st7" d="M1064.25,1184.15h15.24v80.01h-15.24l-32.51-51.18v51.18h-15.24v-80.01h15.24l32.51,51.31V1184.15z"/>
	<path class="st7" d="M1144.9,1238.76h-19.94v-13.97h38.61v3.81c0,6.1-1.12,11.43-3.37,16c-2.24,4.57-5.21,8.38-8.89,11.43
		c-3.68,3.05-7.92,5.33-12.7,6.86c-4.78,1.52-9.72,2.29-14.8,2.29c-5.59,0-10.82-1.02-15.68-3.05c-4.87-2.03-9.14-4.87-12.83-8.51
		c-3.68-3.64-6.58-7.98-8.7-13.02c-2.12-5.04-3.17-10.52-3.17-16.45c0-6.01,1.06-11.51,3.17-16.51c2.12-4.99,5.02-9.31,8.7-12.95
		c3.68-3.64,7.96-6.48,12.83-8.51c4.87-2.03,10.1-3.05,15.68-3.05c5.33,0,10.24,0.72,14.73,2.16c4.49,1.44,8.42,3.51,11.81,6.22
		c3.39,2.71,6.2,5.99,8.45,9.84c2.24,3.85,3.75,8.19,4.51,13.02h-16.64c-1.69-5.08-4.49-9.02-8.38-11.81
		c-3.9-2.79-8.72-4.19-14.48-4.19c-3.39,0-6.56,0.59-9.52,1.78c-2.96,1.19-5.55,2.9-7.75,5.14c-2.2,2.24-3.96,4.93-5.27,8.06
		c-1.31,3.13-1.97,6.69-1.97,10.67c0,3.89,0.66,7.45,1.97,10.67c1.31,3.22,3.07,5.95,5.27,8.19c2.2,2.24,4.78,3.98,7.75,5.21
		c2.96,1.23,6.14,1.84,9.52,1.84c4.49,0,8.64-0.89,12.45-2.67C1140.07,1245.49,1142.95,1242.65,1144.9,1238.76z"/>
</g>
<g>
	<path class="st8" d="M1239.77,1219.71c4.15,1.86,7.26,4.45,9.33,7.75c2.07,3.3,3.11,7.11,3.11,11.43c0,3.81-0.68,7.3-2.03,10.48
		c-1.36,3.18-3.3,5.95-5.84,8.32c-2.54,2.37-5.65,4.21-9.33,5.52c-3.68,1.31-7.85,1.97-12.51,1.97c-3.98,0-7.68-0.63-11.11-1.9
		c-3.43-1.27-6.41-3.05-8.95-5.33s-4.55-5.02-6.03-8.19c-1.48-3.18-2.27-6.67-2.35-10.48h16.64c0.59,3.56,2.03,6.22,4.32,8
		c2.29,1.78,5.33,2.67,9.14,2.67c3.81,0,6.79-0.99,8.95-2.99c2.16-1.99,3.24-4.46,3.24-7.43c0-3.3-1.23-5.88-3.68-7.75
		c-2.46-1.86-5.97-2.79-10.54-2.79h-5.59v-13.33h3.3c3.81,0,6.77-0.78,8.89-2.35c2.12-1.57,3.17-3.75,3.17-6.54
		c0-2.46-0.87-4.46-2.6-6.03c-1.74-1.57-4.21-2.35-7.43-2.35c-6.27,0-9.65,3.56-10.16,10.67h-16.64c0.08-3.81,0.83-7.3,2.22-10.48
		c1.4-3.17,3.3-5.91,5.71-8.19s5.21-4.06,8.38-5.33c3.17-1.27,6.58-1.91,10.22-1.91c4.23,0,7.98,0.57,11.24,1.71
		c3.26,1.14,5.99,2.67,8.19,4.57c2.2,1.9,3.87,4.13,5.02,6.67c1.14,2.54,1.71,5.21,1.71,8
		C1247.77,1211.2,1245.11,1216.4,1239.77,1219.71z"/>
	<path class="st8" d="M1269.11,1218.82c1.95-3.22,4.57-5.65,7.87-7.3c3.3-1.65,7.11-2.48,11.43-2.48c3.89,0,7.47,0.66,10.73,1.97
		c3.26,1.31,6.05,3.17,8.38,5.59c2.33,2.41,4.15,5.25,5.46,8.51c1.31,3.26,1.97,6.88,1.97,10.86c0,4.06-0.7,7.87-2.1,11.43
		c-1.4,3.56-3.37,6.65-5.91,9.27c-2.54,2.63-5.57,4.7-9.08,6.22c-3.51,1.52-7.43,2.29-11.75,2.29c-5.84,0-10.82-0.93-14.92-2.79
		c-4.11-1.86-7.49-4.57-10.16-8.13c-2.67-3.56-4.62-7.87-5.84-12.95c-1.23-5.08-1.84-10.84-1.84-17.27c0-6.26,0.7-11.92,2.1-16.96
		c1.4-5.04,3.49-9.33,6.29-12.89c2.79-3.56,6.22-6.29,10.29-8.19c4.06-1.91,8.76-2.86,14.1-2.86c4.06,0,7.77,0.57,11.11,1.71
		c3.34,1.14,6.22,2.77,8.64,4.89c2.41,2.12,4.27,4.63,5.59,7.56c1.31,2.92,1.97,6.12,1.97,9.59v0.76h-15.62v-0.89
		c0-2.46-1.08-4.51-3.24-6.16c-2.16-1.65-5.02-2.48-8.57-2.48c-5.93,0-10.12,1.82-12.57,5.46
		C1270.97,1207.22,1269.53,1212.3,1269.11,1218.82z M1272.15,1237.36c0,3.47,1.33,6.44,4,8.89c2.67,2.46,5.95,3.77,9.84,3.94
		c4.32-0.17,7.62-1.54,9.91-4.13c2.29-2.58,3.43-5.86,3.43-9.84c0-3.56-1.27-6.5-3.81-8.83c-2.54-2.33-5.8-3.49-9.78-3.49
		c-4.24,0-7.56,1.21-9.97,3.62S1272.15,1233.21,1272.15,1237.36z"/>
	<path class="st8" d="M1316.73,1224.15c0-6.86,0.97-12.85,2.92-17.97c1.95-5.12,4.57-9.4,7.87-12.83s7.18-5.99,11.62-7.68
		c4.45-1.69,9.16-2.54,14.16-2.54c4.99,0,9.71,0.85,14.16,2.54c4.45,1.69,8.32,4.25,11.62,7.68c3.3,3.43,5.92,7.71,7.87,12.83
		c1.95,5.12,2.92,11.11,2.92,17.97c0,6.86-0.97,12.85-2.92,17.97c-1.95,5.12-4.57,9.4-7.87,12.83c-3.3,3.43-7.18,5.99-11.62,7.68
		c-4.45,1.69-9.17,2.54-14.16,2.54c-5,0-9.72-0.85-14.16-2.54c-4.44-1.69-8.32-4.25-11.62-7.68c-3.3-3.43-5.93-7.7-7.87-12.83
		C1317.7,1237,1316.73,1231.01,1316.73,1224.15z M1332.61,1224.02c0,4.83,0.55,8.89,1.65,12.19c1.1,3.3,2.58,5.97,4.44,8
		c1.86,2.03,4.06,3.49,6.6,4.38s5.21,1.33,8,1.33s5.46-0.45,8-1.33s4.74-2.35,6.6-4.38c1.86-2.03,3.34-4.7,4.45-8
		c1.1-3.3,1.65-7.37,1.65-12.19c0-4.83-0.55-8.87-1.65-12.13c-1.1-3.26-2.58-5.88-4.45-7.87c-1.86-1.99-4.06-3.43-6.6-4.32
		c-2.54-0.89-5.21-1.33-8-1.33s-5.46,0.44-8,1.33c-2.54,0.89-4.74,2.33-6.6,4.32c-1.86,1.99-3.35,4.62-4.44,7.87
		C1333.16,1215.16,1332.61,1219.2,1332.61,1224.02z"/>
</g>
<g>
	<path d="M687.17,1289.62l-9.95,15.79c-0.13,0.23-0.25,0.52-0.36,0.86s-0.16,0.64-0.16,0.9v8.93c0,0.26-0.09,0.48-0.28,0.66
		c-0.18,0.18-0.41,0.27-0.67,0.27h-5.98c-0.26,0-0.49-0.09-0.67-0.27c-0.18-0.18-0.28-0.4-0.28-0.66v-8.89
		c0-0.26-0.05-0.57-0.14-0.92c-0.09-0.35-0.21-0.63-0.34-0.84c-1.59-2.68-3.22-5.3-4.88-7.88c-1.66-2.57-3.31-5.23-4.96-7.96
		c-0.13-0.23-0.16-0.47-0.08-0.72c0.08-0.25,0.25-0.37,0.52-0.37h7.09c0.27,0,0.54,0.08,0.82,0.23c0.28,0.16,0.48,0.35,0.62,0.58
		l4.88,8.35c0.13,0.21,0.29,0.31,0.48,0.31c0.19,0,0.34-0.1,0.48-0.31l4.84-8.35c0.13-0.23,0.34-0.43,0.62-0.58
		c0.28-0.16,0.55-0.23,0.82-0.23h7.17c0.27,0,0.46,0.09,0.58,0.27C687.43,1288.98,687.38,1289.25,687.17,1289.62z"/>
	<path d="M688.53,1302.76c0-2.03,0.4-3.94,1.19-5.73s1.87-3.36,3.22-4.7s2.95-2.4,4.78-3.18c1.83-0.78,3.78-1.17,5.85-1.17
		s4.02,0.39,5.85,1.17c1.83,0.78,3.43,1.84,4.8,3.18c1.37,1.34,2.45,2.91,3.24,4.7c0.8,1.79,1.19,3.71,1.19,5.73
		c0,2.03-0.4,3.94-1.19,5.73c-0.8,1.79-1.88,3.36-3.24,4.7c-1.37,1.34-2.97,2.4-4.8,3.18c-1.83,0.78-3.78,1.17-5.85,1.17
		s-4.02-0.39-5.85-1.17c-1.83-0.78-3.42-1.84-4.78-3.18c-1.35-1.34-2.43-2.91-3.22-4.7S688.53,1304.79,688.53,1302.76z
		 M696.41,1302.76c0,0.99,0.19,1.92,0.56,2.81c0.37,0.88,0.88,1.66,1.53,2.34c0.65,0.68,1.41,1.22,2.29,1.62
		c0.88,0.4,1.8,0.6,2.79,0.6c0.98,0,1.91-0.2,2.79-0.6c0.88-0.4,1.65-0.94,2.31-1.62c0.66-0.68,1.18-1.46,1.55-2.34
		c0.37-0.88,0.56-1.82,0.56-2.81c0-0.96-0.19-1.89-0.56-2.79c-0.37-0.9-0.89-1.68-1.55-2.34s-1.43-1.2-2.31-1.6
		c-0.88-0.4-1.81-0.6-2.79-0.6c-0.98,0-1.91,0.2-2.79,0.6c-0.88,0.4-1.64,0.94-2.29,1.6s-1.16,1.44-1.53,2.34
		C696.59,1300.87,696.41,1301.8,696.41,1302.76z"/>
	<path d="M724.91,1289.46c0-0.26,0.09-0.48,0.28-0.66c0.18-0.18,0.41-0.27,0.67-0.27h5.98c0.26,0,0.49,0.09,0.67,0.27
		c0.18,0.18,0.28,0.4,0.28,0.66v15.79c0,1.01,0.17,1.85,0.5,2.52s0.75,1.18,1.24,1.56s1.02,0.64,1.58,0.8
		c0.56,0.16,1.07,0.23,1.52,0.23c0.45,0,0.96-0.08,1.52-0.23c0.56-0.16,1.08-0.42,1.56-0.8s0.89-0.9,1.22-1.56s0.5-1.5,0.5-2.52
		v-15.79c0-0.26,0.09-0.48,0.28-0.66c0.19-0.18,0.41-0.27,0.67-0.27h5.98c0.26,0,0.49,0.09,0.67,0.27c0.18,0.18,0.28,0.4,0.28,0.66
		v15.79c0,1.85-0.3,3.52-0.89,5.03c-0.6,1.51-1.45,2.79-2.56,3.86c-1.11,1.07-2.45,1.89-4.01,2.48c-1.56,0.58-3.3,0.88-5.21,0.88
		s-3.64-0.29-5.21-0.88c-1.56-0.58-2.9-1.41-4.02-2.48s-1.97-2.35-2.58-3.86c-0.61-1.51-0.91-3.18-0.91-5.03V1289.46z"/>
	<path d="M765.4,1317.03h-5.96c-0.27,0-0.49-0.09-0.68-0.27c-0.19-0.18-0.28-0.4-0.28-0.66v-26.68c0-0.26,0.09-0.48,0.28-0.66
		c0.19-0.18,0.41-0.27,0.68-0.27h12.38c1.54,0,2.96,0.25,4.26,0.76c1.3,0.51,2.41,1.21,3.32,2.12s1.63,1.99,2.15,3.24
		s0.78,2.63,0.78,4.13c0,0.83-0.1,1.66-0.3,2.48c-0.2,0.82-0.48,1.59-0.86,2.32c-0.37,0.73-0.81,1.38-1.31,1.97
		c-0.5,0.58-1.08,1.07-1.71,1.46c-0.21,0.16-0.35,0.34-0.42,0.57c-0.07,0.22-0.02,0.44,0.14,0.64c1.01,1.3,2.07,2.64,3.19,4.02
		s2.11,2.64,2.99,3.78c0.16,0.21,0.2,0.44,0.12,0.68c-0.08,0.25-0.25,0.37-0.52,0.37h-7.41c-0.27,0-0.55-0.07-0.86-0.21
		c-0.31-0.14-0.54-0.32-0.7-0.53c-0.85-1.09-1.68-2.2-2.52-3.31c-0.83-1.12-1.66-2.25-2.48-3.39c-0.16-0.21-0.38-0.38-0.67-0.53
		c-0.29-0.14-0.57-0.21-0.83-0.21h-0.87c-0.26,0-0.49,0.09-0.67,0.27c-0.19,0.18-0.28,0.4-0.28,0.66v6.32
		c0,0.26-0.09,0.48-0.28,0.66C765.89,1316.94,765.66,1317.03,765.4,1317.03z M767.31,1301.67h4.2c0.32,0,0.65-0.06,0.99-0.17
		c0.34-0.12,0.66-0.3,0.95-0.55c0.29-0.25,0.53-0.55,0.71-0.92c0.18-0.36,0.28-0.79,0.28-1.29c0-0.26-0.05-0.57-0.14-0.92
		c-0.09-0.35-0.25-0.69-0.48-1.01c-0.22-0.32-0.53-0.6-0.91-0.82s-0.85-0.33-1.41-0.33h-4.2c-0.26,0-0.49,0.09-0.67,0.27
		c-0.19,0.18-0.28,0.4-0.28,0.66v4.13c0,0.26,0.09,0.48,0.28,0.66C766.82,1301.58,767.04,1301.67,767.31,1301.67z"/>
	<path d="M817.25,1309.35h-3.47c-0.27,0-0.49,0.09-0.68,0.27c-0.19,0.18-0.28,0.4-0.28,0.66v5.81c0,0.26-0.09,0.48-0.28,0.66
		c-0.18,0.18-0.41,0.27-0.67,0.27h-5.98c-0.26,0-0.49-0.09-0.67-0.27c-0.18-0.18-0.28-0.4-0.28-0.66v-26.68
		c0-0.26,0.09-0.48,0.28-0.66c0.19-0.18,0.41-0.27,0.68-0.27h12.18c1.49,0,2.89,0.27,4.2,0.82c1.31,0.55,2.45,1.3,3.42,2.26
		c0.97,0.96,1.74,2.08,2.31,3.35c0.57,1.27,0.86,2.64,0.86,4.1s-0.24,2.81-0.72,4.08c-0.48,1.26-1.2,2.35-2.18,3.28
		c-0.97,0.92-2.18,1.65-3.63,2.18C820.89,1309.08,819.19,1309.35,817.25,1309.35z M817.54,1295.66h-3.76
		c-0.27,0-0.49,0.09-0.68,0.27c-0.19,0.18-0.28,0.4-0.28,0.66v4.57c0,0.26,0.09,0.48,0.28,0.66c0.19,0.18,0.41,0.27,0.68,0.27h4.28
		c1.01,0,1.75-0.32,2.22-0.95c0.47-0.63,0.7-1.35,0.7-2.15c0-0.41-0.07-0.82-0.22-1.22c-0.15-0.4-0.37-0.75-0.66-1.07
		c-0.29-0.31-0.65-0.56-1.08-0.76C818.59,1295.76,818.1,1295.66,817.54,1295.66z"/>
	<path d="M840.25,1289.38c0.11-0.23,0.29-0.43,0.54-0.6c0.25-0.17,0.52-0.25,0.82-0.25h5.57c0.26,0,0.52,0.08,0.78,0.25
		c0.25,0.17,0.43,0.37,0.54,0.6l11.62,26.52c0.11,0.23,0.09,0.48-0.06,0.74c-0.15,0.26-0.43,0.39-0.86,0.39h-6.81
		c-0.29,0-0.56-0.08-0.82-0.25c-0.25-0.17-0.44-0.37-0.58-0.6l-1.08-2.34c-0.13-0.23-0.33-0.43-0.58-0.6
		c-0.25-0.17-0.51-0.25-0.78-0.25h-8.4c-0.29,0-0.56,0.08-0.82,0.25c-0.25,0.17-0.43,0.37-0.54,0.6l-1.11,2.34
		c-0.11,0.23-0.29,0.44-0.54,0.6c-0.25,0.17-0.51,0.25-0.78,0.25h-6.85c-0.13,0-0.27-0.03-0.42-0.08c-0.15-0.05-0.26-0.13-0.36-0.23
		c-0.09-0.1-0.15-0.23-0.18-0.39s0.01-0.34,0.12-0.55L840.25,1289.38z M842.6,1306.35h3.54c0.26,0,0.46-0.08,0.58-0.25
		c0.12-0.17,0.11-0.37-0.02-0.6c-0.27-0.65-0.58-1.41-0.96-2.28c-0.37-0.87-0.72-1.68-1.04-2.44c-0.11-0.23-0.23-0.35-0.36-0.35
		c-0.13,0-0.25,0.12-0.36,0.35l-1.99,4.72c-0.11,0.23-0.11,0.44,0,0.6C842.11,1306.26,842.3,1306.35,842.6,1306.35z"/>
	<path d="M870.46,1317.03h-5.96c-0.27,0-0.49-0.09-0.68-0.27c-0.19-0.18-0.28-0.4-0.28-0.66v-26.68c0-0.26,0.09-0.48,0.28-0.66
		c0.19-0.18,0.41-0.27,0.68-0.27h12.38c1.54,0,2.96,0.25,4.26,0.76c1.3,0.51,2.41,1.21,3.32,2.12s1.63,1.99,2.15,3.24
		s0.78,2.63,0.78,4.13c0,0.83-0.1,1.66-0.3,2.48c-0.2,0.82-0.48,1.59-0.86,2.32c-0.37,0.73-0.81,1.38-1.31,1.97
		c-0.5,0.58-1.08,1.07-1.71,1.46c-0.21,0.16-0.35,0.34-0.42,0.57c-0.07,0.22-0.02,0.44,0.14,0.64c1.01,1.3,2.07,2.64,3.19,4.02
		s2.11,2.64,2.99,3.78c0.16,0.21,0.2,0.44,0.12,0.68c-0.08,0.25-0.25,0.37-0.52,0.37h-7.41c-0.27,0-0.55-0.07-0.86-0.21
		c-0.31-0.14-0.54-0.32-0.7-0.53c-0.85-1.09-1.68-2.2-2.52-3.31c-0.83-1.12-1.66-2.25-2.48-3.39c-0.16-0.21-0.38-0.38-0.67-0.53
		c-0.29-0.14-0.57-0.21-0.83-0.21h-0.87c-0.26,0-0.49,0.09-0.67,0.27c-0.19,0.18-0.28,0.4-0.28,0.66v6.32
		c0,0.26-0.09,0.48-0.28,0.66C870.95,1316.94,870.73,1317.03,870.46,1317.03z M872.37,1301.67h4.2c0.32,0,0.65-0.06,0.99-0.17
		c0.34-0.12,0.66-0.3,0.95-0.55c0.29-0.25,0.53-0.55,0.71-0.92c0.18-0.36,0.28-0.79,0.28-1.29c0-0.26-0.05-0.57-0.14-0.92
		c-0.09-0.35-0.25-0.69-0.48-1.01c-0.22-0.32-0.53-0.6-0.91-0.82s-0.85-0.33-1.41-0.33h-4.2c-0.26,0-0.49,0.09-0.67,0.27
		c-0.19,0.18-0.28,0.4-0.28,0.66v4.13c0,0.26,0.09,0.48,0.28,0.66C871.88,1301.58,872.11,1301.67,872.37,1301.67z"/>
	<path d="M913.38,1295.66h-5.57c-0.27,0-0.49,0.09-0.68,0.27c-0.19,0.18-0.28,0.4-0.28,0.66v19.5c0,0.26-0.09,0.48-0.26,0.66
		c-0.17,0.18-0.4,0.27-0.7,0.27h-5.97c-0.27,0-0.49-0.09-0.68-0.27c-0.19-0.18-0.28-0.4-0.28-0.66v-19.5c0-0.26-0.09-0.48-0.26-0.66
		c-0.17-0.18-0.4-0.27-0.7-0.27h-5.65c-0.27,0-0.49-0.09-0.68-0.27c-0.19-0.18-0.28-0.4-0.28-0.66v-5.3c0-0.26,0.09-0.48,0.28-0.66
		c0.19-0.18,0.41-0.27,0.68-0.27h21.02c0.29,0,0.52,0.09,0.7,0.27c0.17,0.18,0.26,0.4,0.26,0.66v5.3c0,0.26-0.09,0.48-0.26,0.66
		C913.9,1295.57,913.67,1295.66,913.38,1295.66z"/>
	<path d="M946.9,1289.42v26.68c0,0.26-0.09,0.48-0.28,0.66c-0.19,0.18-0.41,0.27-0.68,0.27h-5.88c-0.27,0-0.54-0.08-0.83-0.23
		c-0.29-0.16-0.52-0.34-0.68-0.55l-10.37-14.31c-0.16-0.21-0.33-0.29-0.5-0.25c-0.17,0.04-0.26,0.19-0.26,0.45v13.96
		c0,0.26-0.09,0.48-0.28,0.66c-0.19,0.18-0.41,0.27-0.68,0.27h-5.96c-0.27,0-0.49-0.09-0.68-0.27c-0.19-0.18-0.28-0.4-0.28-0.66
		v-26.68c0-0.26,0.09-0.48,0.28-0.66c0.19-0.18,0.41-0.27,0.68-0.27h5.97c0.26,0,0.54,0.07,0.84,0.21c0.29,0.14,0.52,0.32,0.68,0.53
		l10.35,14.31c0.16,0.21,0.32,0.3,0.5,0.27c0.17-0.03,0.26-0.17,0.26-0.43v-13.96c0-0.26,0.09-0.48,0.28-0.66
		c0.19-0.18,0.41-0.27,0.68-0.27h5.89c0.27,0,0.49,0.09,0.68,0.27C946.81,1288.94,946.9,1289.16,946.9,1289.42z"/>
	<path d="M962.87,1296.6v1.64c0,0.26,0.09,0.48,0.28,0.66c0.19,0.18,0.41,0.27,0.68,0.27h10.79c0.27,0,0.49,0.09,0.68,0.27
		c0.19,0.18,0.28,0.4,0.28,0.66v5.38c0,0.26-0.09,0.48-0.28,0.66c-0.19,0.18-0.41,0.27-0.68,0.27h-10.79
		c-0.27,0-0.49,0.09-0.68,0.27c-0.19,0.18-0.28,0.4-0.28,0.66v1.48c0,0.26,0.09,0.48,0.28,0.66c0.19,0.18,0.41,0.27,0.68,0.27h12.38
		c0.27,0,0.49,0.09,0.68,0.27c0.19,0.18,0.28,0.4,0.28,0.66v5.38c0,0.26-0.09,0.48-0.28,0.66c-0.19,0.18-0.41,0.27-0.68,0.27h-20.26
		c-0.27,0-0.49-0.09-0.68-0.27c-0.19-0.18-0.28-0.4-0.28-0.66v-26.68c0-0.26,0.09-0.48,0.28-0.66c0.19-0.18,0.41-0.27,0.68-0.27
		h20.26c0.27,0,0.49,0.09,0.68,0.27c0.19,0.18,0.28,0.4,0.28,0.66v5.3c0,0.26-0.09,0.48-0.28,0.66c-0.19,0.18-0.41,0.27-0.68,0.27
		h-12.38c-0.27,0-0.49,0.09-0.68,0.27C962.96,1296.12,962.87,1296.34,962.87,1296.6z"/>
	<path d="M991.33,1317.03h-5.96c-0.27,0-0.49-0.09-0.68-0.27c-0.19-0.18-0.28-0.4-0.28-0.66v-26.68c0-0.26,0.09-0.48,0.28-0.66
		c0.19-0.18,0.41-0.27,0.68-0.27h12.38c1.54,0,2.96,0.25,4.26,0.76c1.3,0.51,2.41,1.21,3.33,2.12c0.92,0.91,1.63,1.99,2.15,3.24
		s0.78,2.63,0.78,4.13c0,0.83-0.1,1.66-0.3,2.48s-0.48,1.59-0.86,2.32c-0.37,0.73-0.81,1.38-1.31,1.97s-1.07,1.07-1.71,1.46
		c-0.21,0.16-0.35,0.34-0.42,0.57s-0.02,0.44,0.14,0.64c1.01,1.3,2.07,2.64,3.18,4.02c1.12,1.38,2.11,2.64,2.99,3.78
		c0.16,0.21,0.2,0.44,0.12,0.68c-0.08,0.25-0.25,0.37-0.52,0.37h-7.4c-0.27,0-0.55-0.07-0.86-0.21c-0.31-0.14-0.54-0.32-0.7-0.53
		c-0.85-1.09-1.68-2.2-2.52-3.31c-0.83-1.12-1.66-2.25-2.48-3.39c-0.16-0.21-0.38-0.38-0.67-0.53c-0.29-0.14-0.57-0.21-0.83-0.21
		h-0.87c-0.26,0-0.49,0.09-0.67,0.27c-0.19,0.18-0.28,0.4-0.28,0.66v6.32c0,0.26-0.09,0.48-0.28,0.66
		C991.82,1316.94,991.59,1317.03,991.33,1317.03z M993.24,1301.67h4.2c0.32,0,0.65-0.06,0.99-0.17c0.34-0.12,0.66-0.3,0.95-0.55
		c0.29-0.25,0.53-0.55,0.71-0.92c0.18-0.36,0.28-0.79,0.28-1.29c0-0.26-0.05-0.57-0.14-0.92c-0.09-0.35-0.25-0.69-0.48-1.01
		c-0.22-0.32-0.53-0.6-0.91-0.82s-0.85-0.33-1.41-0.33h-4.2c-0.26,0-0.49,0.09-0.67,0.27c-0.19,0.18-0.28,0.4-0.28,0.66v4.13
		c0,0.26,0.09,0.48,0.28,0.66C992.75,1301.58,992.98,1301.67,993.24,1301.67z"/>
	<path d="M1051.65,1295.66h-5.57c-0.27,0-0.49,0.09-0.68,0.27c-0.19,0.18-0.28,0.4-0.28,0.66v19.5c0,0.26-0.09,0.48-0.26,0.66
		c-0.17,0.18-0.4,0.27-0.7,0.27h-5.97c-0.27,0-0.49-0.09-0.68-0.27c-0.19-0.18-0.28-0.4-0.28-0.66v-19.5c0-0.26-0.09-0.48-0.26-0.66
		s-0.4-0.27-0.7-0.27h-5.65c-0.27,0-0.49-0.09-0.68-0.27s-0.28-0.4-0.28-0.66v-5.3c0-0.26,0.09-0.48,0.28-0.66
		c0.19-0.18,0.41-0.27,0.68-0.27h21.02c0.29,0,0.52,0.09,0.7,0.27c0.17,0.18,0.26,0.4,0.26,0.66v5.3c0,0.26-0.09,0.48-0.26,0.66
		C1052.17,1295.57,1051.94,1295.66,1051.65,1295.66z"/>
	<path d="M1055.91,1302.76c0-2.03,0.4-3.94,1.19-5.73s1.87-3.36,3.22-4.7s2.95-2.4,4.78-3.18c1.83-0.78,3.78-1.17,5.85-1.17
		s4.02,0.39,5.85,1.17c1.83,0.78,3.43,1.84,4.8,3.18s2.45,2.91,3.25,4.7c0.8,1.79,1.19,3.71,1.19,5.73c0,2.03-0.4,3.94-1.19,5.73
		c-0.8,1.79-1.88,3.36-3.25,4.7c-1.37,1.34-2.97,2.4-4.8,3.18s-3.78,1.17-5.85,1.17s-4.02-0.39-5.85-1.17s-3.42-1.84-4.78-3.18
		c-1.35-1.34-2.43-2.91-3.22-4.7S1055.91,1304.79,1055.91,1302.76z M1063.79,1302.76c0,0.99,0.19,1.92,0.56,2.81
		c0.37,0.88,0.88,1.66,1.53,2.34c0.65,0.68,1.41,1.22,2.29,1.62c0.88,0.4,1.8,0.6,2.79,0.6c0.98,0,1.91-0.2,2.79-0.6
		c0.88-0.4,1.65-0.94,2.31-1.62c0.66-0.68,1.18-1.46,1.55-2.34c0.37-0.88,0.56-1.82,0.56-2.81c0-0.96-0.19-1.89-0.56-2.79
		c-0.37-0.9-0.89-1.68-1.55-2.34s-1.43-1.2-2.31-1.6c-0.88-0.4-1.81-0.6-2.79-0.6c-0.98,0-1.91,0.2-2.79,0.6
		c-0.88,0.4-1.64,0.94-2.29,1.6s-1.16,1.44-1.53,2.34C1063.98,1300.87,1063.79,1301.8,1063.79,1302.76z"/>
	<path d="M1115.9,1296.66v1.62c0,0.26,0.09,0.48,0.28,0.66c0.19,0.18,0.41,0.27,0.68,0.27h10.75c0.27,0,0.49,0.09,0.68,0.27
		s0.28,0.4,0.28,0.66v5.46c0,0.26-0.09,0.48-0.28,0.66s-0.41,0.27-0.68,0.27h-10.75c-0.27,0-0.49,0.09-0.68,0.27
		s-0.28,0.4-0.28,0.66v8.62c0,0.26-0.09,0.48-0.28,0.66c-0.19,0.18-0.41,0.27-0.67,0.27h-5.98c-0.26,0-0.49-0.09-0.67-0.27
		c-0.18-0.18-0.28-0.4-0.28-0.66v-26.68c0-0.26,0.09-0.48,0.28-0.66c0.18-0.18,0.41-0.27,0.67-0.27h20.23
		c0.26,0,0.49,0.09,0.68,0.27s0.28,0.41,0.28,0.67v5.37c0,0.26-0.09,0.48-0.28,0.67s-0.41,0.27-0.68,0.27h-12.34
		c-0.27,0-0.49,0.09-0.68,0.27C1116,1296.19,1115.9,1296.41,1115.9,1296.66z"/>
	<path d="M1141.7,1289.38c0.11-0.23,0.29-0.43,0.54-0.6c0.25-0.17,0.52-0.25,0.82-0.25h5.57c0.26,0,0.52,0.08,0.78,0.25
		c0.25,0.17,0.43,0.37,0.54,0.6l11.62,26.52c0.11,0.23,0.09,0.48-0.06,0.74c-0.15,0.26-0.43,0.39-0.86,0.39h-6.81
		c-0.29,0-0.56-0.08-0.82-0.25c-0.25-0.17-0.45-0.37-0.58-0.6l-1.07-2.34c-0.13-0.23-0.33-0.43-0.58-0.6
		c-0.25-0.17-0.51-0.25-0.78-0.25h-8.4c-0.29,0-0.56,0.08-0.82,0.25c-0.25,0.17-0.43,0.37-0.54,0.6l-1.12,2.34
		c-0.11,0.23-0.29,0.44-0.54,0.6c-0.25,0.17-0.51,0.25-0.78,0.25h-6.85c-0.13,0-0.27-0.03-0.42-0.08c-0.15-0.05-0.27-0.13-0.36-0.23
		c-0.09-0.1-0.15-0.23-0.18-0.39c-0.03-0.16,0.01-0.34,0.12-0.55L1141.7,1289.38z M1144.05,1306.35h3.54c0.26,0,0.46-0.08,0.58-0.25
		s0.11-0.37-0.02-0.6c-0.27-0.65-0.58-1.41-0.96-2.28c-0.37-0.87-0.72-1.68-1.04-2.44c-0.11-0.23-0.23-0.35-0.36-0.35
		s-0.25,0.12-0.36,0.35l-1.99,4.72c-0.11,0.23-0.11,0.44,0,0.6C1143.56,1306.26,1143.76,1306.35,1144.05,1306.35z"/>
	<path d="M1193.89,1289.42v26.68c0,0.26-0.09,0.48-0.28,0.66c-0.19,0.18-0.41,0.27-0.68,0.27h-5.88c-0.26,0-0.54-0.08-0.83-0.23
		c-0.29-0.16-0.52-0.34-0.67-0.55l-10.37-14.31c-0.16-0.21-0.33-0.29-0.5-0.25c-0.17,0.04-0.26,0.19-0.26,0.45v13.96
		c0,0.26-0.09,0.48-0.28,0.66c-0.19,0.18-0.41,0.27-0.68,0.27h-5.96c-0.27,0-0.49-0.09-0.68-0.27c-0.19-0.18-0.28-0.4-0.28-0.66
		v-26.68c0-0.26,0.09-0.48,0.28-0.66c0.18-0.18,0.41-0.27,0.68-0.27h5.97c0.26,0,0.54,0.07,0.84,0.21c0.29,0.14,0.52,0.32,0.68,0.53
		l10.35,14.31c0.16,0.21,0.33,0.3,0.5,0.27s0.26-0.17,0.26-0.43v-13.96c0-0.26,0.09-0.48,0.28-0.66c0.19-0.18,0.41-0.27,0.68-0.27
		h5.89c0.26,0,0.49,0.09,0.68,0.27C1193.8,1288.94,1193.89,1289.16,1193.89,1289.42z"/>
	<path d="M1221.52,1295.66h-5.57c-0.27,0-0.49,0.09-0.68,0.27c-0.19,0.18-0.28,0.4-0.28,0.66v19.5c0,0.26-0.09,0.48-0.26,0.66
		c-0.17,0.18-0.4,0.27-0.7,0.27h-5.97c-0.27,0-0.49-0.09-0.68-0.27c-0.19-0.18-0.28-0.4-0.28-0.66v-19.5c0-0.26-0.09-0.48-0.26-0.66
		s-0.4-0.27-0.7-0.27h-5.65c-0.27,0-0.49-0.09-0.68-0.27s-0.28-0.4-0.28-0.66v-5.3c0-0.26,0.09-0.48,0.28-0.66
		c0.19-0.18,0.41-0.27,0.68-0.27h21.02c0.29,0,0.52,0.09,0.7,0.27c0.17,0.18,0.26,0.4,0.26,0.66v5.3c0,0.26-0.09,0.48-0.26,0.66
		C1222.05,1295.57,1221.82,1295.66,1221.52,1295.66z"/>
	<path d="M1233.19,1289.38c0.11-0.23,0.29-0.43,0.54-0.6c0.25-0.17,0.52-0.25,0.82-0.25h5.57c0.26,0,0.52,0.08,0.78,0.25
		c0.25,0.17,0.43,0.37,0.54,0.6l11.62,26.52c0.11,0.23,0.09,0.48-0.06,0.74c-0.15,0.26-0.43,0.39-0.86,0.39h-6.81
		c-0.29,0-0.56-0.08-0.82-0.25c-0.25-0.17-0.45-0.37-0.58-0.6l-1.07-2.34c-0.13-0.23-0.33-0.43-0.58-0.6
		c-0.25-0.17-0.51-0.25-0.78-0.25h-8.4c-0.29,0-0.56,0.08-0.82,0.25c-0.25,0.17-0.43,0.37-0.54,0.6l-1.12,2.34
		c-0.11,0.23-0.29,0.44-0.54,0.6c-0.25,0.17-0.51,0.25-0.78,0.25h-6.85c-0.13,0-0.27-0.03-0.42-0.08c-0.15-0.05-0.27-0.13-0.36-0.23
		c-0.09-0.1-0.15-0.23-0.18-0.39c-0.03-0.16,0.01-0.34,0.12-0.55L1233.19,1289.38z M1235.54,1306.35h3.54
		c0.26,0,0.46-0.08,0.58-0.25s0.11-0.37-0.02-0.6c-0.27-0.65-0.58-1.41-0.96-2.28c-0.37-0.87-0.72-1.68-1.04-2.44
		c-0.11-0.23-0.23-0.35-0.36-0.35s-0.25,0.12-0.36,0.35l-1.99,4.72c-0.11,0.23-0.11,0.44,0,0.6
		C1235.04,1306.26,1235.24,1306.35,1235.54,1306.35z"/>
	<path d="M1260.38,1307.24c1.43,0.91,2.85,1.62,4.26,2.15c1.41,0.52,2.72,0.78,3.94,0.78c1.17,0,2.06-0.16,2.67-0.49
		c0.61-0.33,0.92-0.81,0.92-1.46c0-0.34-0.13-0.6-0.4-0.8c-0.27-0.2-0.62-0.36-1.06-0.49c-0.44-0.13-0.95-0.23-1.53-0.31
		c-0.58-0.08-1.18-0.18-1.79-0.31c-0.58-0.1-1.27-0.23-2.05-0.37c-0.78-0.14-1.59-0.35-2.41-0.62c-0.82-0.27-1.64-0.62-2.45-1.03
		s-1.53-0.95-2.17-1.6c-0.64-0.65-1.15-1.42-1.53-2.32c-0.39-0.9-0.58-1.96-0.58-3.18c0-1.79,0.36-3.28,1.07-4.45
		s1.63-2.1,2.73-2.79c1.1-0.69,2.33-1.17,3.68-1.44c1.35-0.27,2.67-0.41,3.94-0.41c2.23,0,4.23,0.32,5.99,0.96
		c1.76,0.64,3.46,1.57,5.08,2.79c0.21,0.18,0.33,0.4,0.36,0.66c0.03,0.26-0.04,0.49-0.2,0.7l-3.11,4.33
		c-0.16,0.21-0.37,0.34-0.64,0.39c-0.27,0.05-0.5,0-0.72-0.16c-1.35-0.83-2.61-1.42-3.78-1.77c-1.17-0.35-2.24-0.53-3.22-0.53
		c-0.29,0-0.63,0.01-1.01,0.02c-0.39,0.01-0.75,0.07-1.09,0.16c-0.35,0.09-0.63,0.24-0.86,0.45c-0.23,0.21-0.34,0.49-0.34,0.86
		s0.28,0.69,0.84,0.97c0.56,0.29,1.19,0.53,1.91,0.74c0.72,0.21,1.41,0.37,2.07,0.49c0.66,0.12,1.09,0.19,1.27,0.21
		c0.96,0.18,2,0.45,3.15,0.8c1.14,0.35,2.21,0.87,3.2,1.56c1,0.69,1.83,1.59,2.51,2.69s1.01,2.49,1.01,4.15
		c0,1.56-0.28,2.91-0.84,4.04s-1.33,2.06-2.33,2.79s-2.19,1.27-3.58,1.62s-2.94,0.53-4.64,0.53c-1.38,0-2.67-0.11-3.86-0.33
		s-2.31-0.53-3.34-0.92c-1.04-0.39-2-0.85-2.89-1.38c-0.89-0.53-1.71-1.1-2.45-1.7c-0.21-0.16-0.33-0.37-0.36-0.64
		c-0.03-0.27,0.04-0.51,0.2-0.72l3.07-4.33c0.16-0.21,0.37-0.34,0.64-0.39C1259.93,1307.07,1260.17,1307.11,1260.38,1307.24z"/>
	<path d="M1304.61,1295.66h-5.57c-0.27,0-0.49,0.09-0.68,0.27c-0.19,0.18-0.28,0.4-0.28,0.66v19.5c0,0.26-0.09,0.48-0.26,0.66
		c-0.17,0.18-0.4,0.27-0.7,0.27h-5.97c-0.27,0-0.49-0.09-0.68-0.27c-0.19-0.18-0.28-0.4-0.28-0.66v-19.5c0-0.26-0.09-0.48-0.26-0.66
		s-0.4-0.27-0.7-0.27h-5.65c-0.27,0-0.49-0.09-0.68-0.27s-0.28-0.4-0.28-0.66v-5.3c0-0.26,0.09-0.48,0.28-0.66
		c0.19-0.18,0.41-0.27,0.68-0.27h21.02c0.29,0,0.52,0.09,0.7,0.27c0.17,0.18,0.26,0.4,0.26,0.66v5.3c0,0.26-0.09,0.48-0.26,0.66
		C1305.13,1295.57,1304.9,1295.66,1304.61,1295.66z"/>
	<path d="M1318.03,1317.03h-5.98c-0.29,0-0.52-0.09-0.69-0.27c-0.17-0.18-0.26-0.4-0.26-0.66v-26.64c0-0.26,0.08-0.48,0.26-0.66
		c0.17-0.18,0.4-0.27,0.69-0.27h5.98c0.26,0,0.49,0.09,0.67,0.27c0.19,0.18,0.28,0.4,0.28,0.66v26.64c0,0.26-0.09,0.48-0.28,0.66
		C1318.52,1316.94,1318.29,1317.03,1318.03,1317.03z"/>
	<path d="M1354.61,1309.47c-0.77,1.22-1.62,2.33-2.55,3.32c-0.93,1-1.97,1.84-3.12,2.54c-1.16,0.7-2.44,1.24-3.84,1.63
		c-1.41,0.39-2.96,0.58-4.66,0.58c-2.12,0-4.11-0.39-5.97-1.17c-1.86-0.78-3.48-1.83-4.88-3.16s-2.49-2.89-3.29-4.68
		c-0.8-1.79-1.19-3.71-1.19-5.73c0-2.03,0.4-3.94,1.19-5.73c0.8-1.79,1.89-3.35,3.29-4.68c1.39-1.33,3.02-2.38,4.88-3.16
		c1.86-0.78,3.85-1.17,5.97-1.17c1.75,0,3.33,0.19,4.74,0.58c1.41,0.39,2.68,0.94,3.82,1.64c1.14,0.7,2.17,1.55,3.08,2.55
		c0.92,1,1.76,2.1,2.53,3.29c0.13,0.21,0.16,0.43,0.08,0.66c-0.08,0.23-0.24,0.4-0.48,0.51l-5.65,2.18c-0.27,0.1-0.53,0.1-0.8,0
		c-0.27-0.1-0.46-0.26-0.6-0.47c-0.77-1.2-1.7-2.11-2.79-2.75c-1.09-0.64-2.4-0.96-3.94-0.96c-1.01,0-1.96,0.21-2.85,0.62
		c-0.89,0.42-1.67,0.97-2.33,1.66c-0.66,0.69-1.18,1.49-1.55,2.4c-0.37,0.91-0.56,1.85-0.56,2.82c0,0.99,0.19,1.94,0.56,2.83
		c0.37,0.9,0.89,1.69,1.55,2.37c0.66,0.68,1.44,1.23,2.33,1.64c0.89,0.42,1.84,0.62,2.85,0.62c1.46,0,2.78-0.34,3.96-1.03
		c1.18-0.69,2.12-1.58,2.81-2.67c0.13-0.21,0.33-0.36,0.58-0.47c0.25-0.1,0.51-0.1,0.78,0l5.65,2.18c0.24,0.1,0.4,0.27,0.48,0.49
		C1354.77,1309,1354.75,1309.23,1354.61,1309.47z"/>
</g>
<text transform="matrix(1.0208 0 0 1 1359.7571 1317.0317)" class="st9 st10">+</text>
</svg>
