<?xml version="1.0" encoding="UTF-8"?>
<svg xmlns="http://www.w3.org/2000/svg" viewBox="0 0 693.18 427.27">
  <defs>
    <style>
      .cls-1 {
        fill: #ed2f2a;
      }

      .cls-1, .cls-2, .cls-3, .cls-4, .cls-5, .cls-6, .cls-7, .cls-8, .cls-9, .cls-10, .cls-11, .cls-12, .cls-13, .cls-14, .cls-15, .cls-16, .cls-17, .cls-18, .cls-19, .cls-20, .cls-21, .cls-22 {
        stroke-width: 0px;
      }

      .cls-2 {
        fill: #f5eced;
      }

      .cls-3 {
        fill: #4d4d4d;
      }

      .cls-4 {
        fill: #606060;
      }

      .cls-5 {
        fill: #0295bc;
      }

      .cls-6 {
        fill: #00a8e1;
      }

      .cls-23 {
        isolation: isolate;
      }

      .cls-7 {
        fill: #617e8e;
      }

      .cls-8 {
        fill: #ffb354;
      }

      .cls-9 {
        fill: #aec3d3;
        opacity: .9;
      }

      .cls-10 {
        fill: #5a5a5a;
      }

      .cls-11 {
        fill: #161616;
      }

      .cls-12 {
        fill: #2e3191;
      }

      .cls-13 {
        fill: #fff;
      }

      .cls-14 {
        fill: #484848;
      }

      .cls-15 {
        fill: #878787;
      }

      .cls-16, .cls-22 {
        fill: #dcdadb;
        mix-blend-mode: multiply;
      }

      .cls-17 {
        fill: #acacac;
      }

      .cls-18 {
        fill: #3d4bad;
      }

      .cls-19 {
        fill: #444;
      }

      .cls-20 {
        fill: #282828;
      }

      .cls-21 {
        fill: #525252;
      }

      .cls-22 {
        opacity: .5;
      }
    </style>
  </defs>
  <g class="cls-23">
    <g id="BACKGROUND">
      <g>
        <path class="cls-9" d="m588.06,365.49c-16.21,0-29.36-13.14-29.36-29.35s13.15-29.36,29.36-29.36h27.72c37.63-.54,67.98-31.19,67.98-68.96s-30.88-68.98-68.98-68.98h-55.89c-4.83,0-8.75-3.92-8.75-8.75s3.92-8.75,8.75-8.75h40.96c15.07,0,27.29-12.22,27.29-27.28s-12.22-27.28-27.29-27.28h-59.82c-4.26,0-7.72-3.46-7.72-7.72s3.46-7.72,7.72-7.72h6.8c15.35,0,27.8-12.45,27.8-27.8s-12.45-27.8-27.8-27.8h-52.9c-2.23-14.57-14.79-25.74-29.98-25.74H164.36c-16.77,0-30.37,13.6-30.37,30.37s13.6,30.37,30.37,30.37v.02h18.28c5.68,0,10.29,4.61,10.29,10.29s-4.61,10.29-10.29,10.29H56.51c-11.8,0-21.36,9.56-21.36,21.36s9.56,21.36,21.36,21.36h167.71c18.06,0,32.71,14.64,32.71,32.71s-14.64,32.71-32.71,32.71H86.44c-.24,0-.48-.03-.72-.04h-13.51c-32.41,0-58.68,26.28-58.68,58.69,0,23.18,13.44,43.21,32.95,52.75h26.68c11.14,0,20.18,9.03,20.18,20.17s-9.03,20.18-20.18,20.18h-26.68c-20.96,3.01-37.06,21.02-37.06,42.8,0,23.88,19.36,43.24,43.24,43.24h566.26c17.06,0,30.89-13.83,30.89-30.88s-13.83-30.89-30.89-30.89h-30.84Z"/>
        <g>
          <path class="cls-7" d="m693.18,373.9c0,8.77-7.11,15.88-15.88,15.88H15.88c-8.77,0-15.88-7.11-15.88-15.88h0c0-8.77,7.11-15.88,15.88-15.88h661.43c8.77,0,15.88,7.11,15.88,15.88h0Z"/>
          <g>
            <path class="cls-2" d="m117.72,373.9c0,1.04-.84,1.88-1.88,1.88H21.19c-1.04,0-1.88-.84-1.88-1.88h0c0-1.04.84-1.88,1.88-1.88h94.64c1.04,0,1.88.84,1.88,1.88h0Z"/>
            <path class="cls-2" d="m384.31,373.9c0,1.04-.84,1.88-1.88,1.88h-94.64c-1.04,0-1.88-.84-1.88-1.88h0c0-1.04.84-1.88,1.88-1.88h94.64c1.04,0,1.88.84,1.88,1.88h0Z"/>
            <path class="cls-2" d="m650.9,373.9c0,1.04-.84,1.88-1.88,1.88h-94.64c-1.04,0-1.88-.84-1.88-1.88h0c0-1.04.84-1.88,1.88-1.88h94.64c1.04,0,1.88.84,1.88,1.88h0Z"/>
          </g>
        </g>
      </g>
    </g>
    <g id="OBJECTS">
      <g>
        <g>
          <path class="cls-20" d="m265.45,334.92h-8.84c-11.28,0-20.43,9.14-20.43,20.43s9.15,20.43,20.43,20.43h8.84c11.28,0,20.43-9.15,20.43-20.43s-9.15-20.43-20.43-20.43Z"/>
          <path class="cls-20" d="m85.01,334.92h-8.84c-11.28,0-20.43,9.14-20.43,20.43s9.15,20.43,20.43,20.43h8.84c11.28,0,20.43-9.15,20.43-20.43s-9.15-20.43-20.43-20.43Z"/>
        </g>
        <g>
          <rect class="cls-2" x="92.92" y="165.36" width="562.78" height="162.59"/>
          <rect class="cls-16" x="92.92" y="165.36" width="139.71" height="162.59"/>
          <polygon class="cls-22" points="655.7 327.95 92.92 327.95 92.92 165.36 231.17 186.16 655.7 327.95"/>
        </g>
        <g>
          <path class="cls-11" d="m46.16,287.43h12.46c.22,0,.4-.18.4-.4s-.18-.4-.4-.4h-12.46c-1.54,0-2.79-1.25-2.79-2.79v-27.99c0-1.54,1.25-2.79,2.79-2.79h7.61c.22,0,.4-.18.4-.4s-.18-.4-.4-.4h-7.61c-1.97,0-3.58,1.61-3.58,3.58v27.99c0,1.98,1.61,3.58,3.58,3.58Z"/>
          <rect class="cls-11" x="37.47" y="256.65" width="10.78" height="21.22" rx="3.18" ry="3.18"/>
        </g>
        <g>
          <path class="cls-12" d="m211.49,342.91c0,4.39-3.56,7.96-7.96,7.96H49.99c-4.4,0-7.96-3.56-7.96-7.96,0-59.45,7.81-99.03,10.68-107.41,1.42-4.16,5.04-7.96,9.43-7.96h141.39c4.4,0,7.96,3.56,7.96,7.96v107.41Z"/>
          <path class="cls-12" d="m211.49,342.91v-107.41c0-4.39-3.56-7.96-7.96-7.96h-46.11c-4.4,0-8.01,3.8-9.43,7.96-2.87,8.38-10.68,47.96-10.68,107.41,0,4.39,3.56,7.96,7.96,7.96h58.26c4.4,0,7.96-3.56,7.96-7.96Z"/>
          <g>
            <polygon class="cls-5" points="48.53 282.41 131.18 282.41 137.31 242.31 54.63 242.31 48.53 282.41"/>
            <polygon class="cls-5" points="147.57 282.41 184.91 282.41 184.91 242.31 153.67 242.31 147.57 282.41"/>
          </g>
          <g>
            <polygon class="cls-6" points="54.63 242.31 48.53 282.41 72.84 282.41 116.19 242.31 54.63 242.31"/>
            <polygon class="cls-6" points="153.67 242.31 148.79 274.41 183.48 242.31 153.67 242.31"/>
          </g>
          <g>
            <polygon class="cls-14" points="134.76 242.31 129.11 279.28 49.01 279.28 48.53 282.41 131.18 282.41 137.31 242.31 134.76 242.31"/>
            <polygon class="cls-3" points="182.44 242.31 182.44 279.27 148.05 279.27 147.57 282.41 184.91 282.41 184.91 242.31 182.44 242.31"/>
          </g>
          <g>
            <rect class="cls-8" x="50.8" y="322.98" width="79.16" height="7.16" rx="3.18" ry="3.18"/>
            <rect class="cls-14" x="68.81" y="322.98" width="41.12" height="7.16"/>
          </g>
          <g>
            <path class="cls-1" d="m51.96,304.87h76.14c.33,0,.6-.27.6-.6s-.27-.6-.6-.6H51.96c-.33,0-.6.27-.6.6s.27.6.6.6Z"/>
            <path class="cls-1" d="m128.1,307H51.96c-.33,0-.6.27-.6.6s.27.6.6.6h76.14c.33,0,.6-.27.6-.6s-.27-.6-.6-.6Z"/>
            <path class="cls-1" d="m128.1,310.31H51.96c-.33,0-.6.27-.6.6s.27.6.6.6h76.14c.33,0,.6-.27.6-.6s-.27-.6-.6-.6Z"/>
            <path class="cls-1" d="m128.1,313.63H51.96c-.33,0-.6.27-.6.6s.27.6.6.6h76.14c.33,0,.6-.27.6-.6s-.27-.6-.6-.6Z"/>
          </g>
          <path class="cls-1" d="m194.56,232.26h-31.84c-3.99,0-7.81.54-10.65,7-3.17,7.24-4.71,21.35-4.71,43.16v64.08c0,.11.09.2.2.2h5.8c.11,0,.2-.09.2-.2,0-.03,0-.06-.02-.08-.11-1.09-1.58-16.71,4.72-23.76,2.05-2.29,4.73-3.46,7.97-3.46h28.32c.11,0,.2-.09.2-.2v-86.54c0-.11-.09-.2-.2-.2Zm-28.32,86.54c-3.36,0-6.14,1.21-8.27,3.59-6.19,6.93-5.02,21.9-4.83,23.9h-5.37v-63.88c0-46.09,6.48-49.76,14.96-49.76h31.64v49.56h-9.45c-.11,0-.2.09-.2.2s.09.2.2.2h9.45v36.19h-28.12Z"/>
        </g>
        <g>
          <path class="cls-11" d="m149.78,287.43h-12.46c-.22,0-.4-.18-.4-.4s.18-.4.4-.4h12.46c1.54,0,2.79-1.25,2.79-2.79v-27.99c0-1.54-1.25-2.79-2.79-2.79h-7.61c-.22,0-.4-.18-.4-.4s.18-.4.4-.4h7.61c1.98,0,3.58,1.61,3.58,3.58v27.99c0,1.98-1.61,3.58-3.58,3.58Z"/>
          <path class="cls-11" d="m150.75,256.65h4.41c1.76,0,3.18,1.43,3.18,3.18v14.86c0,1.76-1.43,3.18-3.18,3.18h-4.41c-1.76,0-3.18-1.43-3.18-3.18v-14.86c0-1.76,1.43-3.18,3.18-3.18Z"/>
        </g>
        <path class="cls-15" d="m380.53,347.41h-17.81v14.57h-189.64c-10.77,0-14.72-8.73-14.72-19.5h0c0-10.77,3.96-19.5,14.72-19.5h207.46v24.43Z"/>
        <path class="cls-17" d="m173.07,322.98c-10.77,0-14.72,8.73-14.72,19.5,0,1.81.12,3.56.36,5.23,1.17-8.23,5.41-14.27,14.36-14.27h272.28v-10.46H173.07Z"/>
        <rect class="cls-19" x="194.76" y="347.41" width="151.82" height="16.43" rx="1.59" ry="1.59"/>
        <g>
          <rect class="cls-4" x="226.4" y="317.14" width="12.47" height="47.49" rx="1.59" ry="1.59"/>
          <path class="cls-14" d="m229.58,363.04v-44.3c0-.88.71-1.59,1.59-1.59h-3.18c-.88,0-1.59.71-1.59,1.59v44.3c0,.88.71,1.59,1.59,1.59h3.18c-.88,0-1.59-.71-1.59-1.59Z"/>
        </g>
        <rect class="cls-4" x="445.35" y="339.49" width="178.95" height="16.43" rx="1.59" ry="1.59"/>
        <g>
          <path class="cls-11" d="m192,325.2h-16.67c-13.58,0-24.58,11-24.58,24.58s11.01,24.58,24.58,24.58h16.67c13.58,0,24.58-11.01,24.58-24.58s-11.01-24.58-24.58-24.58Z"/>
          <path class="cls-14" d="m216.58,349.78c0,13.58-11.01,24.58-24.58,24.58s-24.58-11.01-24.58-24.58,11.01-24.58,24.58-24.58,24.58,11,24.58,24.58Z"/>
          <path class="cls-10" d="m212.43,349.78c0,11.28-9.15,20.43-20.43,20.43s-20.43-9.15-20.43-20.43,9.15-20.43,20.43-20.43,20.43,9.15,20.43,20.43Z"/>
          <path class="cls-21" d="m204.87,349.78c0,7.11-5.76,12.87-12.87,12.87s-12.87-5.76-12.87-12.87,5.76-12.87,12.87-12.87,12.87,5.76,12.87,12.87Z"/>
          <path class="cls-17" d="m199.49,349.78c0,4.14-3.35,7.49-7.49,7.49s-7.49-3.36-7.49-7.49,3.35-7.49,7.49-7.49,7.49,3.35,7.49,7.49Z"/>
        </g>
        <g>
          <path class="cls-11" d="m340.28,329.42h-15.23c-12.41,0-22.47,10.06-22.47,22.47s10.06,22.47,22.47,22.47h15.23c12.41,0,22.47-10.06,22.47-22.47s-10.06-22.47-22.47-22.47Z"/>
          <path class="cls-14" d="m362.75,351.9c0,12.41-10.06,22.47-22.47,22.47s-22.47-10.06-22.47-22.47,10.06-22.47,22.47-22.47,22.47,10.06,22.47,22.47Z"/>
          <path class="cls-10" d="m358.96,351.9c0,10.31-8.36,18.68-18.68,18.68s-18.68-8.36-18.68-18.68,8.36-18.68,18.68-18.68,18.68,8.36,18.68,18.68Z"/>
          <path class="cls-21" d="m352.05,351.9c0,6.5-5.27,11.76-11.77,11.76s-11.77-5.27-11.77-11.76,5.27-11.77,11.77-11.77,11.77,5.27,11.77,11.77Z"/>
          <path class="cls-17" d="m347.13,351.9c0,3.78-3.07,6.85-6.85,6.85s-6.85-3.07-6.85-6.85,3.07-6.85,6.85-6.85,6.85,3.07,6.85,6.85Z"/>
        </g>
        <g>
          <path class="cls-11" d="m291.23,329.42h-15.23c-12.41,0-22.47,10.06-22.47,22.47s10.06,22.47,22.47,22.47h15.23c12.41,0,22.47-10.06,22.47-22.47s-10.06-22.47-22.47-22.47Z"/>
          <path class="cls-14" d="m313.7,351.9c0,12.41-10.06,22.47-22.47,22.47s-22.47-10.06-22.47-22.47,10.06-22.47,22.47-22.47,22.47,10.06,22.47,22.47Z"/>
          <path class="cls-10" d="m309.91,351.9c0,10.31-8.36,18.68-18.68,18.68s-18.68-8.36-18.68-18.68,8.36-18.68,18.68-18.68,18.68,8.36,18.68,18.68Z"/>
          <path class="cls-21" d="m303,351.9c0,6.5-5.27,11.76-11.77,11.76s-11.77-5.27-11.77-11.76,5.27-11.77,11.77-11.77,11.77,5.27,11.77,11.77Z"/>
          <path class="cls-17" d="m298.08,351.9c0,3.78-3.07,6.85-6.85,6.85s-6.85-3.07-6.85-6.85,3.07-6.85,6.85-6.85,6.85,3.07,6.85,6.85Z"/>
        </g>
        <g>
          <rect class="cls-15" x="433.44" y="325.28" width="185.98" height="18.88" rx="1.59" ry="1.59"/>
          <path class="cls-17" d="m619.42,333.92c0,.45-.36.81-.81.81h-186.49c-.45,0-.81-.36-.81-.81h0c0-.45.36-.81.81-.81h186.49c.45,0,.81.36.81.81h0Z"/>
        </g>
        <g>
          <rect class="cls-11" x="488.08" y="341.89" width="7.69" height="17.59"/>
          <rect class="cls-14" x="485.69" y="321.85" width="12.47" height="29.67" rx="1.59" ry="1.59"/>
          <path class="cls-11" d="m488.87,349.93v-26.49c0-.88.71-1.59,1.59-1.59h-3.18c-.88,0-1.59.71-1.59,1.59v26.49c0,.88.71,1.59,1.59,1.59h3.18c-.88,0-1.59-.71-1.59-1.59Z"/>
          <rect class="cls-14" x="485.69" y="357.42" width="12.47" height="4.48" rx="1.59" ry="1.59"/>
        </g>
        <g>
          <rect class="cls-10" x="38.41" y="333.16" width="122.58" height="26.68" rx="7.96" ry="7.96"/>
          <rect class="cls-14" x="132.4" y="333.16" width="28.6" height="26.68" rx="7.96" ry="7.96"/>
          <rect class="cls-14" x="69.98" y="347.8" width="32.26" height="10.29" rx="3.18" ry="3.18"/>
          <rect class="cls-8" x="114.09" y="341.87" width="15.87" height="11.07" rx="3.18" ry="3.18"/>
          <rect class="cls-17" x="75.9" y="347.8" width="20.4" height="10.29"/>
          <rect class="cls-13" x="117.09" y="341.88" width="9.88" height="11.05"/>
          <rect class="cls-8" x="42.86" y="341.87" width="15.87" height="11.07" rx="3.18" ry="3.18"/>
          <rect class="cls-13" x="45.86" y="341.88" width="9.88" height="11.05"/>
        </g>
        <path class="cls-20" d="m362.72,347.71v-.34c0-13.65,11.06-24.71,24.71-24.71h57.46c13.65,0,24.71,11.06,24.71,24.71v.34h-106.89Z"/>
        <g>
          <path class="cls-18" d="m62.6,227.54s1.25-41.39,39.52-41.39h101.6v41.39H62.6Z"/>
          <path class="cls-12" d="m197.49,186.16c-38.28,0-39.52,41.39-39.52,41.39h45.74v-41.39h-6.22Z"/>
        </g>
        <g>
          <path class="cls-11" d="m449.87,329.42h-15.23c-12.41,0-22.47,10.06-22.47,22.47s10.06,22.47,22.47,22.47h15.23c12.41,0,22.47-10.06,22.47-22.47s-10.06-22.47-22.47-22.47Z"/>
          <circle class="cls-14" cx="449.87" cy="351.9" r="22.47"/>
          <path class="cls-10" d="m468.55,351.9c0,10.31-8.36,18.68-18.68,18.68s-18.68-8.36-18.68-18.68,8.36-18.68,18.68-18.68,18.68,8.36,18.68,18.68Z"/>
          <path class="cls-21" d="m461.64,351.9c0,6.5-5.27,11.76-11.77,11.76s-11.77-5.27-11.77-11.76,5.27-11.77,11.77-11.77,11.77,5.27,11.77,11.77Z"/>
          <path class="cls-17" d="m456.72,351.9c0,3.78-3.07,6.85-6.85,6.85s-6.85-3.07-6.85-6.85,3.07-6.85,6.85-6.85,6.85,3.07,6.85,6.85Z"/>
        </g>
        <g>
          <path class="cls-11" d="m402.74,329.42h-15.23c-12.41,0-22.47,10.06-22.47,22.47s10.06,22.47,22.47,22.47h15.23c12.41,0,22.47-10.06,22.47-22.47s-10.06-22.47-22.47-22.47Z"/>
          <circle class="cls-14" cx="402.74" cy="351.9" r="22.47"/>
          <path class="cls-10" d="m421.42,351.9c0,10.31-8.36,18.68-18.68,18.68s-18.68-8.36-18.68-18.68,8.36-18.68,18.68-18.68,18.68,8.36,18.68,18.68Z"/>
          <path class="cls-21" d="m414.51,351.9c0,6.5-5.27,11.76-11.77,11.76s-11.77-5.27-11.77-11.76,5.27-11.77,11.77-11.77,11.77,5.27,11.77,11.77Z"/>
          <path class="cls-17" d="m409.59,351.9c0,3.78-3.07,6.85-6.85,6.85s-6.85-3.07-6.85-6.85,3.07-6.85,6.85-6.85,6.85,3.07,6.85,6.85Z"/>
        </g>
        <g>
          <path class="cls-11" d="m592.04,329.42h-15.23c-12.41,0-22.47,10.06-22.47,22.47s10.06,22.47,22.47,22.47h15.23c12.41,0,22.47-10.06,22.47-22.47s-10.06-22.47-22.47-22.47Z"/>
          <circle class="cls-14" cx="592.04" cy="351.9" r="22.47"/>
          <path class="cls-10" d="m610.72,351.9c0,10.31-8.36,18.68-18.68,18.68s-18.68-8.36-18.68-18.68,8.36-18.68,18.68-18.68,18.68,8.36,18.68,18.68Z"/>
          <path class="cls-21" d="m603.8,351.9c0,6.5-5.27,11.76-11.77,11.76s-11.76-5.27-11.76-11.76,5.27-11.77,11.76-11.77,11.77,5.27,11.77,11.77Z"/>
          <path class="cls-17" d="m598.89,351.9c0,3.78-3.06,6.85-6.85,6.85s-6.85-3.07-6.85-6.85,3.06-6.85,6.85-6.85,6.85,3.07,6.85,6.85Z"/>
        </g>
        <g>
          <path class="cls-11" d="m544.91,329.42h-15.23c-12.41,0-22.47,10.06-22.47,22.47s10.06,22.47,22.47,22.47h15.23c12.41,0,22.47-10.06,22.47-22.47s-10.06-22.47-22.47-22.47Z"/>
          <circle class="cls-14" cx="544.91" cy="351.9" r="22.47"/>
          <path class="cls-10" d="m563.59,351.9c0,10.31-8.36,18.68-18.68,18.68s-18.68-8.36-18.68-18.68,8.36-18.68,18.68-18.68,18.68,8.36,18.68,18.68Z"/>
          <path class="cls-21" d="m556.67,351.9c0,6.5-5.27,11.76-11.76,11.76s-11.77-5.27-11.77-11.76,5.27-11.77,11.77-11.77,11.76,5.27,11.76,11.77Z"/>
          <path class="cls-17" d="m551.76,351.9c0,3.78-3.06,6.85-6.85,6.85s-6.85-3.07-6.85-6.85,3.06-6.85,6.85-6.85,6.85,3.07,6.85,6.85Z"/>
        </g>
      </g>
      <g>
        <path class="cls-6" d="m351.72,241.81c.59-.08,1.19.03,1.7.33,13.35,7.68,30.98,15.99,56.16,22.13,6.73,1.64,40.32,9.51,84.65,4.13,36-4.37,64.46-15.69,83.54-25.26.18-.09.35-.15.54-.2.68-.17,1.35-.33,2.03-.5,2.42-.6,4.3,2.13,2.86,4.17-.35.5-.74,1.01-1.17,1.52-2.18,2.6-4.42,4.05-5.35,4.64-35.16,22.42-57.9,28.81-57.9,28.81-14.89,4.18-55.56,15.61-104.41.69-29.62-9.04-50.93-24.32-64.08-35.77-1.74-1.52-.88-4.38,1.41-4.7h0Z"/>
        <path class="cls-6" d="m581.4,232.07c-5.48.5-11.05,1.43-16.59,2.63-.77.17-1.63.49-2.19-.47-.47-.8-.38-1.94.43-2.65,1.6-1.4,3.19-2.84,4.94-4.03,4.73-3.22,10.07-4.79,15.67-5.64,4.24-.65,8.49-.78,12.72-.04,1.43.25,2.84.66,4.23,1.1,1.5.48,2.34,1.56,2.53,3.14.53,4.63.32,9.26-.17,13.88-.77,7.18-2.7,14.02-5.97,20.46-1.58,3.11-3.46,6.02-5.65,8.73-.88,1.08-1.38,1.28-2.11.92-.94-.47-1.23-1.28-.9-2.55.85-3.21,1.78-6.41,2.55-9.64,1.39-5.82,2.67-11.67,2.89-17.67.05-1.47-.17-2.97-.4-4.43-.24-1.55-1.21-2.54-2.71-3.03-2.54-.82-5.15-.93-7.79-.81-.44.02-.87.05-1.48.09Z"/>
      </g>
    </g>
  </g>
</svg>